HIERARCHY
ROOT hip
{
	OFFSET 0.000000 0.000000 0.000000 
	CHANNELS 6 Xposition Yposition Zposition Xrotation Zrotation Yrotation
	JOINT abdomen
	{
		OFFSET 0.000000 3.402643 0.000000 
		CHANNELS 3 Xrotation Zrotation Yrotation
		JOINT chest
		{
			OFFSET 0.000000 8.438565 -0.680529 
			CHANNELS 3 Xrotation Zrotation Yrotation
			JOINT neck
			{
				OFFSET 0.000000 10.207942 -0.272212 
				CHANNELS 3 Xrotation Zrotation Yrotation
				JOINT head
				{
					OFFSET 0.000000 3.130431 0.000000 
					CHANNELS 3 Xrotation Zrotation Yrotation
					End Site
					{
						OFFSET 0.000000 3.130435 0.000000 
					}
				}
			}
			JOINT lCollar
			{
				OFFSET 3.470700 6.669187 -0.816635 
				CHANNELS 3 Yrotation Zrotation Xrotation
				JOINT lShldr
				{
					OFFSET 3.198488 0.000000 0.000000 
					CHANNELS 3 Zrotation Yrotation Xrotation
					JOINT lForeArm
					{
						OFFSET 10.139888 0.000000 0.000000 
						CHANNELS 3 Yrotation Zrotation Xrotation
						JOINT lHand
						{
							OFFSET 8.370511 0.000000 0.000000 
							CHANNELS 3 Zrotation Yrotation Xrotation
							End Site
							{
								OFFSET 4.083176 0.000000 0.000000 
							}
						}
					}
				}
			}
			JOINT rCollar
			{
				OFFSET -3.470700 6.669187 -0.816635 
				CHANNELS 3 Yrotation Zrotation Xrotation
				JOINT rShldr
				{
					OFFSET -3.198488 0.000000 0.000000 
					CHANNELS 3 Zrotation Yrotation Xrotation
					JOINT rForeArm
					{
						OFFSET -10.139888 0.000000 0.000000 
						CHANNELS 3 Yrotation Zrotation Xrotation
						JOINT rHand
						{
							OFFSET -8.370511 0.000000 0.000000 
							CHANNELS 3 Zrotation Yrotation Xrotation
							End Site
							{
								OFFSET -4.083176 0.000000 0.000000 
							}
						}
					}
				}
			}
		}
	}
	JOINT lThigh
	{
		OFFSET 5.308129 -1.633274 1.361059 
		CHANNELS 3 Xrotation Zrotation Yrotation
		JOINT lShin
		{
			OFFSET -2.041588 -20.007561 0.000000 
			CHANNELS 3 Xrotation Zrotation Yrotation
			JOINT lFoot
			{
				OFFSET 0.000000 -19.190928 -1.224953 
				CHANNELS 3 Xrotation Yrotation Zrotation
				End Site
				{
					OFFSET 0.000000 -2.449906 4.627600 
				}
			}
		}
	}
	JOINT rThigh
	{
		OFFSET -5.308129 -1.633274 1.361059 
		CHANNELS 3 Xrotation Zrotation Yrotation
		JOINT rShin
		{
			OFFSET 2.041588 -20.007561 0.000000 
			CHANNELS 3 Xrotation Zrotation Yrotation
			JOINT rFoot
			{
				OFFSET 0.000000 -19.190928 -1.224953 
				CHANNELS 3 Xrotation Yrotation Zrotation
				End Site
				{
					OFFSET 0.000000 -2.449906 4.627600 
				}
			}
		}
	}
}
MOTION
Frames: 11
Frame Time: 0.033333
-1.634233 42.365265 5.822626 4.716797 4.335938 105.917969 0.000000 0.000000 0.000000 -1.083984 -1.962891 5.780916 20.253906 -14.248047 14.333532 -14.169923 9.394531 -8.134766 22.773438 -25.000000 -3.574220 -63.642574 11.806641 -36.189407 -4.335938 -6.552734 48.759766 11.132813 15.087892 -4.675191 28.896484 17.490234 -2.913091 49.511719 -5.068360 -0.009766 -1.855469 12.265626 29.658201 -12.910155 -21.699219 -3.695017 -18.475527 -2.977161 -50.092686 47.459900 -3.984225 -8.545854 8.798172 0.161133 -4.854218 -19.464329 -2.977389 1.577650 54.766148 -3.436223 -5.876966 4.720594 -0.114314 1.977564 
-1.639322 42.349541 6.045621 3.710938 4.765625 107.558586 0.000000 0.000000 0.000000 -1.025391 -1.591797 5.683593 20.947266 -12.773437 13.505859 -14.619141 9.306641 -9.090219 22.431643 -24.726564 -3.609196 -64.599609 12.314454 -35.173702 -7.099609 -7.109375 49.580082 10.371094 14.746093 -4.736328 28.759766 18.681641 -3.076173 49.101559 -5.439453 -0.283203 -1.855469 12.226563 30.156252 -13.818359 -21.455078 -3.662110 -19.148670 -1.999509 -50.443565 48.051628 -4.004126 -8.749301 9.738356 0.116976 -5.581739 -18.852724 -1.845284 0.750188 54.121670 -3.367616 -4.840169 4.617474 -0.120968 1.471829 
-1.644327 42.345840 6.262512 2.861328 5.224610 109.405190 0.000000 0.000000 0.000000 -0.937500 -1.269531 5.576172 21.103516 -11.904297 12.666013 -14.374999 10.156250 -10.252183 21.992188 -23.232422 -3.492241 -65.566406 12.626954 -33.642578 -10.429688 -7.666016 50.283203 9.648438 14.511719 -4.782709 28.515625 19.804688 -3.095704 48.847656 -5.820313 -0.488281 -1.855469 12.197266 30.388559 -14.580077 -21.240236 -3.626585 -19.869762 -1.157961 -50.585194 48.534088 -3.986774 -9.034005 10.735383 0.067536 -6.122872 -18.269733 -0.937250 -0.510670 53.511040 -3.308779 -4.653628 4.678715 -0.104055 1.292119 
-1.648463 42.351570 6.469383 2.177735 5.673828 111.338860 0.000000 0.000000 0.000000 -0.751953 -0.996094 5.439453 21.269529 -11.298827 11.787110 -14.179687 11.191407 -11.502010 21.640625 -21.894533 -3.046875 -66.503906 12.568359 -28.122875 -14.628908 -7.353516 47.382816 9.042969 14.287108 -4.812043 28.007813 20.937500 -2.783203 48.583984 -5.927735 -0.577180 -1.855469 12.148438 30.126953 -14.804686 -21.269529 -3.607057 -20.620390 -0.463191 -50.437023 49.006733 -3.957931 -9.042616 11.692472 0.012463 -6.360532 -17.768681 -0.371120 -2.095075 52.996548 -3.187539 -4.572667 4.759079 -0.125576 1.264131 
-1.650978 42.364082 6.659471 1.591797 6.250000 113.271484 0.000000 0.000000 0.000000 -0.527344 -0.732422 5.292969 22.285156 -10.185547 10.838116 -14.775392 11.240234 -12.500001 21.552734 -20.058594 -2.402344 -67.890625 12.353516 -17.988279 -19.433594 -5.224609 40.292973 8.544922 14.023438 -4.853516 27.324219 22.246096 -2.304688 48.154297 -5.859375 -0.616231 -1.865234 12.070312 29.667969 -14.814451 -21.308594 -3.607063 -21.214077 0.115573 -50.321194 49.538006 -3.947781 -8.745120 12.590906 -0.044551 -6.557315 -17.132532 0.127015 -3.939941 52.472546 -3.183792 -4.432337 4.779136 -0.120250 1.214427 
-1.654648 42.380646 6.829325 1.113281 7.001954 115.234375 0.000000 0.000000 0.000000 -0.332031 -0.449219 5.126954 23.955078 -8.525390 9.773942 -15.742188 10.566406 -13.173828 21.416016 -17.539064 -1.943359 -69.970703 12.382813 -7.050780 -23.945311 -1.689453 33.047161 7.851562 13.925780 -4.882813 26.562502 23.701174 -1.996113 47.656250 -5.957031 -0.664063 -1.875000 12.041016 29.375002 -14.941406 -21.103518 -3.626563 -21.626431 0.630009 -50.333603 50.006638 -3.925942 -8.282790 13.640152 -0.103773 -7.059011 -16.238029 0.526864 -5.936700 51.854424 -3.082080 -4.480489 4.813369 -0.142565 0.908768 
-1.662013 42.418655 6.991099 0.703125 7.861328 117.179070 0.000000 0.000000 0.000000 -0.195313 -0.166016 4.921877 25.371094 -7.001954 8.778107 -16.142578 10.312501 -13.828124 20.888672 -15.009766 -1.706455 -72.324219 12.685547 -2.663872 -27.822268 0.166016 32.363277 6.650391 14.091797 -4.880434 25.732424 25.000000 -1.869361 47.275391 -6.289063 -0.742187 -1.875000 12.050781 28.994139 -14.853515 -20.771486 -3.685103 -21.986528 1.324258 -49.960873 50.284668 -3.908729 -7.931923 14.950645 -0.194819 -7.676359 -15.164142 0.996150 -8.122748 51.060345 -3.037205 -4.860129 4.980767 -0.119911 0.546082 
-1.671989 42.472054 7.163286 0.234375 8.720696 118.956543 0.000000 0.000000 0.000000 -0.078125 0.146484 4.707033 26.259766 -5.800781 7.978517 -16.054689 10.654297 -14.550780 20.039063 -12.958985 -1.531013 -74.433594 13.115233 -2.595440 -31.611332 0.322266 35.498047 5.107422 14.238280 -4.890176 24.853516 25.000000 -1.781470 46.914059 -6.474609 -0.722656 -1.884766 12.021485 28.115236 -14.189453 -20.644533 -3.759766 -22.537294 2.462300 -48.988358 50.351250 -3.945203 -7.953580 16.285322 -0.330765 -8.236293 -14.154943 1.650001 -9.996064 50.104858 -2.925969 -5.261729 5.195339 -0.120892 0.217029 
-1.683453 42.528549 7.346618 -0.341797 9.501954 120.478516 0.000000 0.000000 0.000000 0.058594 0.478516 4.521566 27.187500 -4.511719 7.314454 -16.337891 10.742188 -15.126955 19.248045 -11.103515 -1.259766 -76.357422 13.603517 -2.324219 -35.605469 0.419922 37.744144 3.730469 14.033054 -4.929232 23.955076 25.000000 -1.611328 46.542969 -6.318359 -0.517578 -1.884766 12.011720 27.019449 -13.251953 -20.722656 -3.818359 -23.265522 3.920617 -47.639313 50.273884 -3.965284 -8.468200 17.544916 -0.447619 -8.845693 -13.358984 2.499592 -11.536459 49.114147 -2.855478 -5.577223 5.438978 -0.102961 0.069039 
-1.695300 42.578957 7.524552 -0.830078 10.185547 121.904289 0.000000 0.000000 0.000000 0.195313 0.751953 4.316537 28.291016 -3.154297 6.630322 -17.158203 10.429688 -15.498046 18.583984 -9.257813 -0.926163 -78.251953 14.208983 -1.601562 -39.892582 0.439453 38.730469 2.871094 13.671875 -4.960938 23.046875 25.000000 -1.342018 46.367188 -5.976563 -0.283203 -1.884766 12.011720 26.413984 -12.558594 -20.556641 -3.890148 -24.027020 5.287028 -46.239552 50.134815 -3.937850 -8.830293 18.896589 -0.639873 -9.655596 -12.655441 3.163370 -13.173108 48.207043 -2.730991 -5.704212 5.672030 -0.117510 -0.089293 
-1.706420 42.640686 7.690352 -1.083984 10.771485 123.341675 0.000000 0.000000 0.000000 0.351563 0.917968 4.101722 29.199219 -2.080078 5.966442 -17.900389 10.263672 -15.925995 17.802734 -7.802735 -0.496721 -79.892578 14.824219 -0.654297 -44.199215 0.410156 38.994072 2.500000 13.691406 -4.970703 22.138672 25.000000 -0.957031 46.523438 -5.732421 -0.283203 -1.894531 11.972657 26.240234 -11.943359 -19.794922 -4.046275 -24.771889 6.446989 -44.590107 50.002758 -3.955243 -8.363125 20.440722 -0.836551 -10.407921 -11.876565 3.418157 -15.325352 47.314163 -2.685555 -5.331751 5.843187 -0.134329 -0.442845 
